<?xml version="1.0" standalone="no"?>
<!DOCTYPE svg PUBLIC "-//W3C//DTD SVG 20010904//EN"
 "http://www.w3.org/TR/2001/REC-SVG-20010904/DTD/svg10.dtd">
<svg version="1.0" xmlns="http://www.w3.org/2000/svg"
 width="64.000000pt" height="64.000000pt" viewBox="0 0 64.000000 64.000000"
 preserveAspectRatio="xMidYMid meet">

<g transform="translate(0.000000,64.000000) scale(0.100000,-0.100000)"
fill="#000000" stroke="none">
<path d="M250 597 c-174 -49 -262 -231 -191 -394 61 -140 235 -206 377 -144
222 97 224 423 4 520 -60 26 -135 33 -190 18z m184 -42 c94 -45 141 -124 141
-235 0 -85 -18 -133 -70 -185 -52 -52 -100 -70 -185 -70 -86 0 -128 16 -183
72 -47 47 -70 96 -75 164 -9 122 53 218 173 266 43 18 152 11 199 -12z"/>
<path d="M250 365 l-44 -45 44 -45 c24 -24 47 -42 52 -38 6 3 -2 17 -16 32
-14 15 -26 30 -26 34 0 4 36 7 80 7 47 0 80 4 80 10 0 6 -33 10 -80 10 -44 0
-80 3 -80 7 0 4 12 19 26 34 14 15 22 29 16 32 -5 4 -28 -14 -52 -38z"/>
</g>
</svg>
